<svg id="Layer_1" data-name="Layer 1" xmlns="http://www.w3.org/2000/svg" viewBox="0 0 98.67 27.88"><defs><style>.cls-1{fill:#38a048;}.cls-2{fill:#fbd8de;}.cls-3{fill:#b38eb3;}.cls-4{fill:#a22a3b;}.cls-5{fill:none;stroke:#d2c1de;stroke-miterlimit:10;stroke-width:0.5px;}.cls-6{fill:#faf28e;}.cls-7{fill:#fad848;}.cls-8{fill:#fff;}</style></defs><path class="cls-1" d="M30.24,2.87s-1.86-2.21-4.87,0c0,0-2.12-4.07-5.8,0,0,0-3.94-2.66-5.39,2.26,0,0-4.1,1.3-1.82,5.42,0,0-2,4.71,2.7,4.66,0,0,2.49,5.32,5.08,1.91,0,0,.26,2.31,1.81,1.56Z" transform="translate(-11.67 -1.06)"/><rect class="cls-2" x="10.38" y="13.41" width="17.93" height="11.2"/><rect class="cls-3" x="16.89" y="15.93" width="5.18" height="8.66"/><polygon class="cls-4" points="10.46 24.61 9.13 24.61 9.13 27.88 29.63 27.88 29.63 24.61 10.46 24.61"/><path class="cls-5" d="M30.24,25.65V19.94c0-.43,0-.87,0-1.31a1.49,1.49,0,0,1,0-.21,1.82,1.82,0,0,1,.07-.25,1.07,1.07,0,0,1,.15-.22.6.6,0,0,1,.25-.16.8.8,0,0,1,.84.13,1,1,0,0,1,.26.69s0,.06,0,.1v6.94" transform="translate(-11.67 -1.06)"/><polygon class="cls-6" points="19.4 1.23 4.76 13.41 34.3 13.41 19.4 1.23"/><path class="cls-7" d="M24.65,27.68v-.4H26v.95a1.69,1.69,0,0,1-.57.26,2.78,2.78,0,0,1-.75.11,2,2,0,0,1-.85-.16,1.14,1.14,0,0,1-.54-.44,1.21,1.21,0,0,1-.18-.64,1.08,1.08,0,0,1,.2-.66,1.31,1.31,0,0,1,.59-.45,2.26,2.26,0,0,1,.74-.11,1.84,1.84,0,0,1,.9.18.86.86,0,0,1,.42.52l-.62.09a.57.57,0,0,0-.25-.28.88.88,0,0,0-.45-.1,1,1,0,0,0-.65.2.72.72,0,0,0-.24.59A.82.82,0,0,0,24,28a1,1,0,0,0,.65.21,1.32,1.32,0,0,0,.39-.06,2.18,2.18,0,0,0,.34-.14v-.31Z" transform="translate(-11.67 -1.06)"/><path class="cls-7" d="M26.45,27.38a1.17,1.17,0,0,1,.14-.61,1.11,1.11,0,0,1,.29-.33,1.39,1.39,0,0,1,.4-.21,2.19,2.19,0,0,1,.66-.09,1.71,1.71,0,0,1,1.1.32,1.11,1.11,0,0,1,.41.91,1.08,1.08,0,0,1-.41.9A1.69,1.69,0,0,1,28,28.6a1.77,1.77,0,0,1-1.1-.32A1.1,1.1,0,0,1,26.45,27.38Zm.64,0a.76.76,0,0,0,.24.61.91.91,0,0,0,.62.21.89.89,0,0,0,.61-.21.92.92,0,0,0,0-1.23.89.89,0,0,0-.62-.2.87.87,0,0,0-.62.2A.77.77,0,0,0,27.09,27.37Z" transform="translate(-11.67 -1.06)"/><path class="cls-7" d="M29.92,28.56V26.18h.94l.56,1.62L32,26.18h.94v2.38h-.58V26.68l-.61,1.88h-.6l-.62-1.88v1.88Z" transform="translate(-11.67 -1.06)"/><path class="cls-7" d="M35.51,27.68l.6.15a1,1,0,0,1-.46.58,1.8,1.8,0,0,1-1.83-.13,1.22,1.22,0,0,1,0-1.81,1.57,1.57,0,0,1,1-.33,1.54,1.54,0,0,1,.92.25,1,1,0,0,1,.31.44l-.61.12a.57.57,0,0,0-.23-.3.82.82,0,0,0-.42-.1.79.79,0,0,0-.56.19.78.78,0,0,0-.22.61.85.85,0,0,0,.21.65.78.78,0,0,0,.55.19.75.75,0,0,0,.43-.12A.66.66,0,0,0,35.51,27.68Z" transform="translate(-11.67 -1.06)"/><path class="cls-7" d="M36.49,27.78l.61,0a.54.54,0,0,0,.22.35.83.83,0,0,0,.45.11.92.92,0,0,0,.46-.1.28.28,0,0,0,.15-.23.2.2,0,0,0-.06-.15.63.63,0,0,0-.23-.1l-.5-.1a2.12,2.12,0,0,1-.7-.24.58.58,0,0,1-.29-.48.53.53,0,0,1,.14-.34.74.74,0,0,1,.38-.24,1.84,1.84,0,0,1,.61-.08,1.62,1.62,0,0,1,.88.19.66.66,0,0,1,.31.53l-.63,0a.39.39,0,0,0-.17-.27.83.83,0,0,0-.4-.08.82.82,0,0,0-.42.09.17.17,0,0,0-.1.15.17.17,0,0,0,.09.14,1.84,1.84,0,0,0,.58.16,4.22,4.22,0,0,1,.67.17.8.8,0,0,1,.34.25.6.6,0,0,1,.12.38.58.58,0,0,1-.14.38.9.9,0,0,1-.42.27,2.51,2.51,0,0,1-.67.08,1.62,1.62,0,0,1-.9-.21A.85.85,0,0,1,36.49,27.78Z" transform="translate(-11.67 -1.06)"/><path class="cls-8" d="M52.63,19.37V16.72H58V23a6.76,6.76,0,0,1-2.28,1.7,6.84,6.84,0,0,1-3,.74,5.71,5.71,0,0,1-3.4-1,6.29,6.29,0,0,1-2.18-3,11.91,11.91,0,0,1-.73-4.2,11.09,11.09,0,0,1,.82-4.37,6.36,6.36,0,0,1,2.38-2.94,5.35,5.35,0,0,1,3-.78,5,5,0,0,1,3.61,1.23,5.88,5.88,0,0,1,1.68,3.4l-2.49.59a3.54,3.54,0,0,0-1-1.83,2.55,2.55,0,0,0-1.81-.67A3.09,3.09,0,0,0,50,13.18a6.57,6.57,0,0,0-1,3.92,7.39,7.39,0,0,0,1,4.21,3,3,0,0,0,2.58,1.41,3.4,3.4,0,0,0,1.58-.4,5.3,5.3,0,0,0,1.37-.95v-2Z" transform="translate(-11.67 -1.06)"/><path class="cls-8" d="M59.85,17.38a12.4,12.4,0,0,1,.57-4,7.71,7.71,0,0,1,1.15-2.16,5,5,0,0,1,1.61-1.42,5.52,5.52,0,0,1,2.68-.62,5.26,5.26,0,0,1,4.4,2.16,9.69,9.69,0,0,1,1.65,6,9.69,9.69,0,0,1-1.64,6,5.56,5.56,0,0,1-8.79,0A9.54,9.54,0,0,1,59.85,17.38Zm2.58-.1a7,7,0,0,0,1,4,2.9,2.9,0,0,0,4.94,0,7.23,7.23,0,0,0,1-4.12,7,7,0,0,0-.94-4,2.88,2.88,0,0,0-2.48-1.33,2.94,2.94,0,0,0-2.51,1.35A7.11,7.11,0,0,0,62.43,17.28Z" transform="translate(-11.67 -1.06)"/><path class="cls-8" d="M73.83,25.17V9.41h3.76l2.25,10.75L82.07,9.41h3.77V25.17H83.51V12.76L81,25.17H78.62L76.16,12.76V25.17Z" transform="translate(-11.67 -1.06)"/><path class="cls-8" d="M96.29,19.37l2.43,1a7.29,7.29,0,0,1-1.86,3.83,4.56,4.56,0,0,1-3.3,1.26,4.86,4.86,0,0,1-4.07-2.15,9.57,9.57,0,0,1-1.6-5.86,10.24,10.24,0,0,1,1.6-6.12,5,5,0,0,1,4.22-2.17,4.57,4.57,0,0,1,3.7,1.71,6.8,6.8,0,0,1,1.28,2.9l-2.49.75a3.54,3.54,0,0,0-.92-1.93,2.26,2.26,0,0,0-1.7-.71,2.62,2.62,0,0,0-2.24,1.25,7.37,7.37,0,0,0-.86,4.08,8,8,0,0,0,.85,4.26,2.56,2.56,0,0,0,2.2,1.27,2.22,2.22,0,0,0,1.72-.81A5.19,5.19,0,0,0,96.29,19.37Z" transform="translate(-11.67 -1.06)"/><path class="cls-8" d="M100.24,20l2.44-.3a4.23,4.23,0,0,0,.9,2.29,2.33,2.33,0,0,0,1.81.73,2.42,2.42,0,0,0,1.83-.65,2.16,2.16,0,0,0,.62-1.52,1.68,1.68,0,0,0-.26-.95,2,2,0,0,0-.9-.69q-.45-.19-2-.69a6.32,6.32,0,0,1-2.84-1.55,4.67,4.67,0,0,1-1.14-3.18,4.85,4.85,0,0,1,.54-2.25,3.61,3.61,0,0,1,1.55-1.59,5,5,0,0,1,2.45-.55,4.51,4.51,0,0,1,3.52,1.3A5.17,5.17,0,0,1,110,13.91l-2.51.14a3.06,3.06,0,0,0-.69-1.75,2.16,2.16,0,0,0-1.59-.53,2.42,2.42,0,0,0-1.71.57,1.25,1.25,0,0,0-.4,1,1.36,1.36,0,0,0,.37,1,6.07,6.07,0,0,0,2.31,1.05,10.83,10.83,0,0,1,2.71,1.13,4,4,0,0,1,1.37,1.61,5.67,5.67,0,0,1,.5,2.51,5.48,5.48,0,0,1-.6,2.53,3.83,3.83,0,0,1-1.68,1.76,5.74,5.74,0,0,1-2.7.58,4.66,4.66,0,0,1-3.62-1.38A6.77,6.77,0,0,1,100.24,20Z" transform="translate(-11.67 -1.06)"/></svg>