<svg xmlns="http://www.w3.org/2000/svg" xmlns:xlink="http://www.w3.org/1999/xlink" width="500" zoomAndPan="magnify" viewBox="0 0 375 374.999991" height="500" preserveAspectRatio="xMidYMid meet" version="1.2"><defs><clipPath id="38a453ae76"><path d="M 74 161 L 240.871094 161 L 240.871094 238.484375 L 74 238.484375 Z M 74 161 "/></clipPath><clipPath id="a9ac1b6704"><path d="M 54.871094 121.484375 L 172 121.484375 L 172 182 L 54.871094 182 Z M 54.871094 121.484375 "/></clipPath></defs><g id="9481a7474c"><g clip-rule="nonzero" clip-path="url(#38a453ae76)"><path style=" stroke:none;fill-rule:nonzero;fill:#041f60;fill-opacity:1;" d="M 112.996094 229.8125 C 96.304688 229.8125 82.777344 216.285156 82.777344 199.59375 C 82.777344 182.902344 96.304688 169.375 112.996094 169.375 C 123.046875 169.375 131.945312 174.285156 137.441406 181.832031 L 147.253906 181.832031 C 140.828125 169.460938 127.902344 161.007812 112.996094 161.007812 C 91.683594 161.007812 74.410156 178.28125 74.410156 199.59375 C 74.410156 220.90625 91.683594 238.179688 112.996094 238.179688 L 240.863281 238.179688 L 240.863281 229.8125 L 112.996094 229.8125 "/></g><path style=" stroke:none;fill-rule:nonzero;fill:#041f60;fill-opacity:1;" d="M 111.6875 196.808594 L 100.59375 196.808594 L 100.59375 185.714844 L 111.6875 185.714844 L 111.6875 196.808594 "/><path style=" stroke:none;fill-rule:nonzero;fill:#041f60;fill-opacity:1;" d="M 125.398438 196.808594 L 114.304688 196.808594 L 114.304688 185.714844 L 125.398438 185.714844 L 125.398438 196.808594 "/><path style=" stroke:none;fill-rule:nonzero;fill:#041f60;fill-opacity:1;" d="M 111.6875 210.519531 L 100.59375 210.519531 L 100.59375 199.425781 L 111.6875 199.425781 L 111.6875 210.519531 "/><path style=" stroke:none;fill-rule:nonzero;fill:#041f60;fill-opacity:1;" d="M 125.398438 210.519531 L 114.304688 210.519531 L 114.304688 199.425781 L 125.398438 199.425781 L 125.398438 210.519531 "/><g clip-rule="nonzero" clip-path="url(#a9ac1b6704)"><path style=" stroke:none;fill-rule:nonzero;fill:#fd6801;fill-opacity:1;" d="M 148.492188 158.335938 L 148.492188 141.832031 L 139.085938 141.832031 L 139.085938 148.566406 L 112.996094 121.480469 L 54.863281 181.832031 L 70.835938 181.832031 L 112.996094 138.0625 L 155.15625 181.832031 L 171.125 181.832031 L 148.492188 158.335938 "/></g><g style="fill:#041f60;fill-opacity:1;"><g transform="translate(136.044708, 219.378941)"><path style="stroke:none" d="M 25.59375 0 L 25.59375 -13.953125 L 12.03125 -13.953125 L 12.03125 0 L 4.15625 0 L 4.15625 -34.65625 L 12.03125 -34.65625 L 12.03125 -21.328125 L 25.59375 -21.328125 L 25.59375 -34.65625 L 33.46875 -34.65625 L 33.46875 0 Z M 25.59375 0 "/></g></g><g style="fill:#041f60;fill-opacity:1;"><g transform="translate(171.189707, 219.378941)"><path style="stroke:none" d="M 16.53125 0.6875 C 13.65625 0.6875 11.117188 0.113281 8.921875 -1.03125 C 6.734375 -2.1875 5.019531 -3.796875 3.78125 -5.859375 C 2.550781 -7.921875 1.9375 -10.304688 1.9375 -13.015625 C 1.9375 -15.722656 2.550781 -18.097656 3.78125 -20.140625 C 5.019531 -22.191406 6.734375 -23.796875 8.921875 -24.953125 C 11.117188 -26.109375 13.65625 -26.6875 16.53125 -26.6875 C 19.40625 -26.6875 21.9375 -26.109375 24.125 -24.953125 C 26.320312 -23.796875 28.03125 -22.191406 29.25 -20.140625 C 30.476562 -18.097656 31.09375 -15.722656 31.09375 -13.015625 C 31.09375 -10.304688 30.476562 -7.921875 29.25 -5.859375 C 28.03125 -3.796875 26.320312 -2.1875 24.125 -1.03125 C 21.9375 0.113281 19.40625 0.6875 16.53125 0.6875 Z M 9.359375 -13.015625 C 9.359375 -10.898438 10.023438 -9.164062 11.359375 -7.8125 C 12.691406 -6.46875 14.414062 -5.796875 16.53125 -5.796875 C 18.644531 -5.796875 20.359375 -6.46875 21.671875 -7.8125 C 22.992188 -9.164062 23.65625 -10.898438 23.65625 -13.015625 C 23.65625 -15.160156 22.992188 -16.898438 21.671875 -18.234375 C 20.359375 -19.578125 18.644531 -20.25 16.53125 -20.25 C 14.414062 -20.25 12.691406 -19.578125 11.359375 -18.234375 C 10.023438 -16.898438 9.359375 -15.160156 9.359375 -13.015625 Z M 9.359375 -13.015625 "/></g></g><g style="fill:#041f60;fill-opacity:1;"><g transform="translate(201.731205, 219.378941)"><path style="stroke:none" d="M 14.109375 0.6875 C 10.742188 0.6875 8.09375 -0.375 6.15625 -2.5 C 4.226562 -4.625 3.265625 -7.488281 3.265625 -11.09375 L 3.265625 -25.984375 L 10.796875 -25.984375 L 10.796875 -11.828125 C 10.796875 -9.910156 11.25 -8.425781 12.15625 -7.375 C 13.0625 -6.320312 14.304688 -5.796875 15.890625 -5.796875 C 17.609375 -5.796875 18.976562 -6.390625 20 -7.578125 C 21.019531 -8.765625 21.53125 -10.378906 21.53125 -12.421875 L 21.53125 -25.984375 L 29.0625 -25.984375 L 29.0625 0 L 23.46875 0 L 22.671875 -2.921875 C 21.648438 -1.703125 20.394531 -0.796875 18.90625 -0.203125 C 17.425781 0.390625 15.828125 0.6875 14.109375 0.6875 Z M 14.109375 0.6875 "/></g></g><g style="fill:#041f60;fill-opacity:1;"><g transform="translate(232.074709, 219.378941)"><path style="stroke:none" d="M 13.765625 0.6875 C 11.390625 0.6875 9.316406 0.3125 7.546875 -0.4375 C 5.785156 -1.195312 4.414062 -2.253906 3.4375 -3.609375 C 2.46875 -4.960938 1.984375 -6.546875 1.984375 -8.359375 L 9.359375 -8.359375 C 9.390625 -7.304688 9.800781 -6.46875 10.59375 -5.84375 C 11.382812 -5.21875 12.472656 -4.90625 13.859375 -4.90625 C 15.046875 -4.90625 15.96875 -5.125 16.625 -5.5625 C 17.289062 -6.007812 17.625 -6.613281 17.625 -7.375 C 17.625 -8.195312 17.175781 -8.878906 16.28125 -9.421875 C 15.394531 -9.972656 13.941406 -10.410156 11.921875 -10.734375 C 8.628906 -11.328125 6.207031 -12.285156 4.65625 -13.609375 C 3.101562 -14.929688 2.328125 -16.664062 2.328125 -18.8125 C 2.328125 -21.351562 3.273438 -23.300781 5.171875 -24.65625 C 7.066406 -26.007812 9.765625 -26.6875 13.265625 -26.6875 C 16.734375 -26.6875 19.445312 -25.941406 21.40625 -24.453125 C 23.375 -22.960938 24.4375 -20.847656 24.59375 -18.109375 L 17.421875 -18.109375 C 17.359375 -19.109375 16.953125 -19.878906 16.203125 -20.421875 C 15.460938 -20.960938 14.46875 -21.234375 13.21875 -21.234375 C 12.09375 -21.234375 11.207031 -21.019531 10.5625 -20.59375 C 9.925781 -20.164062 9.609375 -19.570312 9.609375 -18.8125 C 9.609375 -18.019531 10.023438 -17.398438 10.859375 -16.953125 C 11.703125 -16.503906 13.226562 -16.050781 15.4375 -15.59375 C 21.84375 -14.300781 25.046875 -11.546875 25.046875 -7.328125 C 25.046875 -4.847656 24.046875 -2.890625 22.046875 -1.453125 C 20.054688 -0.0234375 17.296875 0.6875 13.765625 0.6875 Z M 13.765625 0.6875 "/></g></g><g style="fill:#041f60;fill-opacity:1;"><g transform="translate(256.676209, 219.378941)"><path style="stroke:none" d="M 3.765625 0 L 3.765625 -25.984375 L 11.28125 -25.984375 L 11.28125 0 Z M 2.671875 -34.40625 C 2.671875 -35.789062 3.125 -36.921875 4.03125 -37.796875 C 4.9375 -38.671875 6.101562 -39.109375 7.53125 -39.109375 C 8.976562 -39.109375 10.144531 -38.671875 11.03125 -37.796875 C 11.925781 -36.921875 12.375 -35.789062 12.375 -34.40625 C 12.375 -33.019531 11.925781 -31.890625 11.03125 -31.015625 C 10.144531 -30.140625 8.976562 -29.703125 7.53125 -29.703125 C 6.101562 -29.703125 4.9375 -30.140625 4.03125 -31.015625 C 3.125 -31.890625 2.671875 -33.019531 2.671875 -34.40625 Z M 2.671875 -34.40625 "/></g></g><g style="fill:#041f60;fill-opacity:1;"><g transform="translate(269.249214, 219.378941)"><path style="stroke:none" d="M 3.765625 0 L 3.765625 -25.984375 L 9.359375 -25.984375 L 10.140625 -23.0625 C 11.203125 -24.289062 12.484375 -25.203125 13.984375 -25.796875 C 15.484375 -26.390625 17.09375 -26.6875 18.8125 -26.6875 C 22.207031 -26.6875 24.867188 -25.628906 26.796875 -23.515625 C 28.734375 -21.398438 29.703125 -18.546875 29.703125 -14.953125 L 29.703125 0 L 22.171875 0 L 22.171875 -14.15625 C 22.171875 -16.070312 21.71875 -17.566406 20.8125 -18.640625 C 19.90625 -19.710938 18.644531 -20.25 17.03125 -20.25 C 15.3125 -20.25 13.921875 -19.65625 12.859375 -18.46875 C 11.804688 -17.28125 11.28125 -15.660156 11.28125 -13.609375 L 11.28125 0 Z M 3.765625 0 "/></g></g><g style="fill:#041f60;fill-opacity:1;"><g transform="translate(299.741216, 219.378941)"><path style="stroke:none" d="M 16.4375 10.984375 C 12.675781 10.984375 9.613281 10.125 7.25 8.40625 C 4.894531 6.695312 3.550781 4.34375 3.21875 1.34375 L 10.546875 1.34375 C 10.804688 2.457031 11.4375 3.328125 12.4375 3.953125 C 13.445312 4.585938 14.726562 4.90625 16.28125 4.90625 C 20.4375 4.90625 22.515625 2.789062 22.515625 -1.4375 L 22.515625 -3.265625 C 21.460938 -2.441406 20.25 -1.804688 18.875 -1.359375 C 17.507812 -0.910156 16.050781 -0.6875 14.5 -0.6875 C 12.0625 -0.6875 9.890625 -1.238281 7.984375 -2.34375 C 6.085938 -3.457031 4.601562 -4.992188 3.53125 -6.953125 C 2.46875 -8.921875 1.9375 -11.175781 1.9375 -13.71875 C 1.9375 -16.25 2.46875 -18.488281 3.53125 -20.4375 C 4.601562 -22.382812 6.085938 -23.910156 7.984375 -25.015625 C 9.890625 -26.128906 12.0625 -26.6875 14.5 -26.6875 C 16.351562 -26.6875 18.0625 -26.378906 19.625 -25.765625 C 21.195312 -25.148438 22.539062 -24.265625 23.65625 -23.109375 L 24.453125 -25.984375 L 30.046875 -25.984375 L 30.046875 -1.4375 C 30.046875 1.132812 29.492188 3.351562 28.390625 5.21875 C 27.285156 7.082031 25.707031 8.507812 23.65625 9.5 C 21.613281 10.488281 19.207031 10.984375 16.4375 10.984375 Z M 9.359375 -13.71875 C 9.359375 -11.695312 9.984375 -10.0625 11.234375 -8.8125 C 12.492188 -7.5625 14.113281 -6.9375 16.09375 -6.9375 C 18.070312 -6.9375 19.695312 -7.5625 20.96875 -8.8125 C 22.238281 -10.0625 22.875 -11.695312 22.875 -13.71875 C 22.875 -15.695312 22.238281 -17.3125 20.96875 -18.5625 C 19.695312 -19.8125 18.070312 -20.4375 16.09375 -20.4375 C 14.113281 -20.4375 12.492188 -19.8125 11.234375 -18.5625 C 9.984375 -17.3125 9.359375 -15.695312 9.359375 -13.71875 Z M 9.359375 -13.71875 "/></g></g><g style="fill:#041f60;fill-opacity:1;"><g transform="translate(244.549704, 238.205111)"><path style="stroke:none" d="M 4.234375 0.296875 C 3.484375 0.296875 2.8125 0.171875 2.21875 -0.078125 C 1.632812 -0.335938 1.171875 -0.707031 0.828125 -1.1875 C 0.492188 -1.675781 0.300781 -2.253906 0.25 -2.921875 L 2.375 -3.296875 C 2.40625 -2.722656 2.601562 -2.269531 2.96875 -1.9375 C 3.34375 -1.601562 3.796875 -1.4375 4.328125 -1.4375 C 4.804688 -1.4375 5.1875 -1.546875 5.46875 -1.765625 C 5.757812 -1.992188 5.90625 -2.273438 5.90625 -2.609375 C 5.90625 -2.890625 5.796875 -3.125 5.578125 -3.3125 C 5.359375 -3.507812 5.003906 -3.671875 4.515625 -3.796875 L 3.3125 -4.109375 C 2.351562 -4.328125 1.648438 -4.660156 1.203125 -5.109375 C 0.765625 -5.554688 0.546875 -6.15625 0.546875 -6.90625 C 0.546875 -7.507812 0.691406 -8.035156 0.984375 -8.484375 C 1.273438 -8.941406 1.6875 -9.289062 2.21875 -9.53125 C 2.75 -9.78125 3.367188 -9.90625 4.078125 -9.90625 C 4.722656 -9.90625 5.296875 -9.789062 5.796875 -9.5625 C 6.304688 -9.332031 6.71875 -9.007812 7.03125 -8.59375 C 7.34375 -8.175781 7.519531 -7.675781 7.5625 -7.09375 L 5.5 -6.6875 C 5.46875 -7.15625 5.316406 -7.523438 5.046875 -7.796875 C 4.773438 -8.066406 4.4375 -8.203125 4.03125 -8.203125 C 3.644531 -8.203125 3.335938 -8.097656 3.109375 -7.890625 C 2.878906 -7.679688 2.765625 -7.414062 2.765625 -7.09375 C 2.765625 -6.820312 2.863281 -6.59375 3.0625 -6.40625 C 3.269531 -6.226562 3.601562 -6.082031 4.0625 -5.96875 L 5.265625 -5.671875 C 6.242188 -5.441406 6.957031 -5.097656 7.40625 -4.640625 C 7.863281 -4.191406 8.09375 -3.585938 8.09375 -2.828125 C 8.09375 -2.191406 7.9375 -1.640625 7.625 -1.171875 C 7.3125 -0.703125 6.863281 -0.335938 6.28125 -0.078125 C 5.707031 0.171875 5.023438 0.296875 4.234375 0.296875 Z M 4.234375 0.296875 "/></g></g><g style="fill:#041f60;fill-opacity:1;"><g transform="translate(252.852152, 238.205111)"><path style="stroke:none" d="M 5.265625 0.296875 C 4.285156 0.296875 3.425781 0.0859375 2.6875 -0.328125 C 1.957031 -0.753906 1.390625 -1.347656 0.984375 -2.109375 C 0.578125 -2.878906 0.375 -3.78125 0.375 -4.8125 C 0.375 -5.84375 0.578125 -6.738281 0.984375 -7.5 C 1.390625 -8.257812 1.957031 -8.847656 2.6875 -9.265625 C 3.425781 -9.691406 4.285156 -9.90625 5.265625 -9.90625 C 6.253906 -9.90625 7.113281 -9.691406 7.84375 -9.265625 C 8.582031 -8.847656 9.15625 -8.257812 9.5625 -7.5 C 9.96875 -6.738281 10.171875 -5.84375 10.171875 -4.8125 C 10.171875 -3.78125 9.96875 -2.878906 9.5625 -2.109375 C 9.15625 -1.347656 8.582031 -0.753906 7.84375 -0.328125 C 7.113281 0.0859375 6.253906 0.296875 5.265625 0.296875 Z M 5.265625 -1.6875 C 6.054688 -1.6875 6.6875 -1.96875 7.15625 -2.53125 C 7.625 -3.09375 7.859375 -3.851562 7.859375 -4.8125 C 7.859375 -5.757812 7.625 -6.515625 7.15625 -7.078125 C 6.6875 -7.648438 6.054688 -7.9375 5.265625 -7.9375 C 4.484375 -7.9375 3.859375 -7.648438 3.390625 -7.078125 C 2.921875 -6.515625 2.6875 -5.757812 2.6875 -4.8125 C 2.6875 -3.851562 2.921875 -3.09375 3.390625 -2.53125 C 3.859375 -1.96875 4.484375 -1.6875 5.265625 -1.6875 Z M 5.265625 -1.6875 "/></g></g><g style="fill:#041f60;fill-opacity:1;"><g transform="translate(263.395582, 238.205111)"><path style="stroke:none" d="M 5.140625 0.296875 C 4.171875 0.296875 3.328125 0.0859375 2.609375 -0.328125 C 1.890625 -0.742188 1.335938 -1.332031 0.953125 -2.09375 C 0.566406 -2.863281 0.375 -3.769531 0.375 -4.8125 C 0.375 -5.851562 0.554688 -6.753906 0.921875 -7.515625 C 1.285156 -8.285156 1.804688 -8.875 2.484375 -9.28125 C 3.160156 -9.695312 3.960938 -9.90625 4.890625 -9.90625 C 5.628906 -9.90625 6.289062 -9.757812 6.875 -9.46875 C 7.457031 -9.175781 7.929688 -8.753906 8.296875 -8.203125 C 8.671875 -7.660156 8.90625 -7.015625 9 -6.265625 L 6.875 -5.84375 C 6.757812 -6.5 6.53125 -7.007812 6.1875 -7.375 C 5.851562 -7.75 5.421875 -7.9375 4.890625 -7.9375 C 4.210938 -7.9375 3.675781 -7.65625 3.28125 -7.09375 C 2.882812 -6.53125 2.6875 -5.769531 2.6875 -4.8125 C 2.6875 -3.851562 2.90625 -3.09375 3.34375 -2.53125 C 3.789062 -1.976562 4.398438 -1.703125 5.171875 -1.703125 C 5.796875 -1.703125 6.320312 -1.921875 6.75 -2.359375 C 7.175781 -2.796875 7.445312 -3.382812 7.5625 -4.125 L 9.71875 -3.8125 C 9.625 -2.96875 9.367188 -2.238281 8.953125 -1.625 C 8.546875 -1.007812 8.019531 -0.535156 7.375 -0.203125 C 6.726562 0.128906 5.984375 0.296875 5.140625 0.296875 Z M 5.140625 0.296875 "/></g></g><g style="fill:#041f60;fill-opacity:1;"><g transform="translate(273.318021, 238.205111)"><path style="stroke:none" d="M 0.671875 0 L 0.671875 -9.609375 L 2.984375 -9.609375 L 2.984375 0 Z M 0.671875 0 "/></g></g><g style="fill:#041f60;fill-opacity:1;"><g transform="translate(276.976502, 238.205111)"><path style="stroke:none" d="M 0.671875 0 L 0.671875 -9.609375 L 6.75 -9.609375 L 6.75 -7.78125 L 2.90625 -7.78125 L 2.90625 -5.734375 L 6.203125 -5.734375 L 6.203125 -4.125 L 2.90625 -4.125 L 2.90625 -1.84375 L 6.890625 -1.84375 L 6.890625 0 Z M 0.671875 0 "/></g></g><g style="fill:#041f60;fill-opacity:1;"><g transform="translate(284.158459, 238.205111)"><path style="stroke:none" d="M 2.734375 0 L 2.734375 -7.640625 L 0.203125 -7.640625 L 0.203125 -9.609375 L 7.59375 -9.609375 L 7.59375 -7.640625 L 5.046875 -7.640625 L 5.046875 0 Z M 2.734375 0 "/></g></g><g style="fill:#041f60;fill-opacity:1;"><g transform="translate(291.947914, 238.205111)"><path style="stroke:none" d="M 3.109375 0 L 3.109375 -3.390625 L 0.0625 -9.609375 L 2.484375 -9.609375 L 4.265625 -5.421875 L 4.28125 -5.421875 L 5.953125 -9.609375 L 8.40625 -9.609375 L 5.421875 -3.390625 L 5.421875 0 Z M 3.109375 0 "/></g></g></g></svg>